<svg width="960" height="7" fill="none" xmlns="http://www.w3.org/2000/svg">
  <path d="M0 0h128.768v6.281H0V0zM274.286 0h128.767v6.281H274.286V0zM689.902 0H818.67v6.281H689.902V0zM415.616 0h128.768v6.281H415.616V0zM831.232 0H960v6.281H831.232V0zM141.33 0h128.768v6.281H141.33V0zM556.947 0h128.767v6.281H556.947V0z" fill="#3D4436"/>
  <path fill-rule="evenodd" clip-rule="evenodd" d="M411.429 0V6.28h-4.188V0h4.188zM827.045 0V6.28h-4.188V0h4.188zM137.143 0V6.28h-4.188V0h4.188zM552.759 0V6.28h-4.188V0h4.188z" fill="#3D4436"/>
</svg>
