<svg width="124" height="124" fill="none" xmlns="http://www.w3.org/2000/svg">
  <path d="M66.967 13.6h-1.023v7.486h-.721l-4.838-6.333h-.052v5.297h1.298v1.036h-3.396V20.05h.97V13.6h-1.1v-1.036h1.966l4.693 6.136h.053v-5.1h-1.272v-1.036h3.422V13.6zM13.329 55.373v.708l7.486 2.294v.918l-6.438 2.176v.053l6.438 2.097v.931l-7.486 2.439v.734h-1.036v-3.081h1.036v1.075l5.532-1.639v-.066l-5.532-1.835v.8h-1.036v-3.068h1.036v.773l5.585-1.835v-.066l-5.585-1.507v1.154h-1.036v-3.055h1.036zM101.772 64.305v-6.41h1.036v1.035h6.45v-1.036h1.035V64.2l-2.438.263-.092-1.036 1.495-.262v-3.042h-2.662v3.88h-1.022v-3.88h-2.766v3.16l1.494.262-.092 1.022-2.438-.262zM59.271 105.812c0-.83.293-1.468.878-1.914.577-.437 1.329-.656 2.255-.656.568 0 1.106.066 1.613.197.507.14.909.323 1.206.551l-.197 1.809-.957-.092.026-1.062a3.179 3.179 0 00-.825-.301 4.985 4.985 0 00-.8-.066c-.542 0-.996.101-1.364.302-.375.209-.563.581-.563 1.114 0 .594.21.983.629 1.167.41.192.874.341 1.39.445.41.088.817.197 1.219.328.393.131.725.345.996.643.262.306.394.747.394 1.324 0 .848-.285 1.464-.853 1.848-.568.385-1.223.577-1.966.577a5.06 5.06 0 01-1.482-.223c-.489-.14-.87-.323-1.14-.55l-.079-1.744.957-.092.144 1.193c.254.14.512.236.774.289.262.052.511.078.747.078.48 0 .874-.105 1.18-.314.297-.21.446-.52.446-.931 0-.481-.184-.809-.55-.983a6.664 6.664 0 00-1.22-.407 13.446 13.446 0 01-1.22-.328 2.612 2.612 0 01-1.153-.694c-.323-.333-.485-.835-.485-1.508z" fill="#758071"/>
  <path fill-rule="evenodd" clip-rule="evenodd" d="M69.653 66.228l28.673-4.343-28.673-4.343 9.592-13.018-13.017 9.593-4.343-28.673-4.343 28.673-13.018-9.593 9.593 13.018-28.673 4.343 28.673 4.343-9.593 13.018 13.018-9.593 4.343 28.673 4.343-28.673 13.017 9.593-9.592-13.018zM61.736 0h.528v6.01a57.96 57.96 0 00-.528 0V0zm-2.415 6.072l-.171-3.273-.504.027.172 3.272c.167-.01.335-.018.503-.026zm-2.923.214l-.342-3.256-.502.052.342 3.256c.167-.018.334-.036.502-.052zm-2.909.366l-.511-3.23-.499.079.512 3.229.498-.078zm-2.886.518l-.679-3.196-.493.105.679 3.195c.164-.036.328-.07.493-.104zm-2.843.666l-1.552-5.792-.51.137 1.552 5.791c.17-.046.34-.092.51-.136zm-2.827.822l-1.008-3.104-.48.156 1.008 3.103.48-.155zm-2.768.966l-1.17-3.046-.47.18 1.169 3.047c.156-.061.313-.122.47-.181zm-2.714 1.11l-1.327-2.981-.461.205 1.328 2.982c.153-.07.306-.137.46-.205zM36.8 11.988l-1.483-2.91-.45.229 1.484 2.91.449-.23zm-2.572 1.384l-3-5.196-.456.263 3 5.197c.151-.089.304-.177.456-.264zm-2.515 1.528l-1.782-2.743-.423.274 1.782 2.745c.14-.093.282-.185.423-.276zm-2.422 1.652l-1.924-2.649-.408.297 1.924 2.649.408-.297zm-2.332 1.776l-2.062-2.546-.392.317 2.062 2.547c.13-.107.26-.213.392-.318zm-2.237 1.895l-2.193-2.436-.375.338 2.193 2.436c.124-.114.25-.226.375-.338zm-2.127 2l-4.249-4.25-.373.374 4.25 4.25a54.7 54.7 0 01.372-.374zm-2.036 2.125l-2.436-2.193-.337.375 2.436 2.193.337-.375zm-1.915 2.22l-2.546-2.062-.317.392 2.546 2.062.317-.392zm-1.796 2.316l-2.65-1.924-.296.408 2.649 1.924.297-.408zm-1.674 2.408l-2.744-1.782-.274.423 2.743 1.781.275-.422zm-1.54 2.48l-5.196-3-.263.457 5.195 3c.088-.152.176-.305.265-.456zm-1.418 2.58l-2.91-1.483-.23.45 2.91 1.482.23-.45zm-1.276 2.64l-2.982-1.328-.205.46 2.982 1.328c.067-.154.136-.307.205-.46zm-1.135 2.703l-3.047-1.17-.18.472 3.046 1.169.18-.471zm-.992 2.76L5.71 43.445l-.156.48 3.103 1.008.156-.48zm-.841 2.796l-5.791-1.552-.137.51 5.792 1.552c.044-.17.09-.34.136-.51zm-.698 2.86l-3.195-.68-.105.494 3.195.68.105-.494zm-.544 2.88l-3.23-.51-.078.498 3.23.511.078-.498zm-.392 2.906l-3.256-.342-.052.502 3.256.342c.016-.168.034-.335.052-.502zm-.24 2.922l-3.272-.171-.027.503 3.273.172c.008-.168.016-.336.026-.504zm-.089 2.918H0v.528h6.01a57.916 57.916 0 010-.528zm.063 2.943l-3.273.171.027.504 3.272-.172a56.8 56.8 0 01-.026-.503zm.214 2.923l-3.256.343.052.501 3.256-.342a56.023 56.023 0 01-.052-.502zm.366 2.91l-3.23.51.079.499 3.229-.511a54.883 54.883 0 01-.078-.499zm.518 2.885l-3.196.68.105.493 3.195-.68c-.036-.164-.07-.328-.104-.493zm.666 2.843l-5.792 1.552.137.51 5.79-1.552a55.31 55.31 0 01-.135-.51zm.821 2.827l-3.103 1.008.156.48 3.103-1.008-.156-.48zm.967 2.768l-3.047 1.17.181.47 3.047-1.169a56.42 56.42 0 01-.181-.47zm1.11 2.714l-2.981 1.327.205.461 2.982-1.327c-.07-.154-.138-.307-.205-.461zm1.253 2.651l-2.91 1.483.229.45 2.91-1.483-.23-.45zm1.383 2.572l-5.195 3 .263.456 5.197-3a55.825 55.825 0 01-.264-.456zm1.53 2.515l-2.744 1.782.274.423 2.744-1.782-.275-.423zm1.651 2.422l-2.649 1.924.297.408 2.649-1.924a54.42 54.42 0 01-.297-.408zm1.776 2.332l-2.546 2.062.317.392 2.547-2.062c-.107-.13-.213-.26-.318-.392zm1.895 2.237l-2.436 2.193.337.375 2.436-2.193-.337-.375zm2 2.127l-4.25 4.249.374.373 4.25-4.249a59.64 59.64 0 01-.374-.373zm2.125 2.036l-2.193 2.436.375.337 2.193-2.436-.375-.337zm2.22 1.915l-2.062 2.546.392.317 2.062-2.546a66.114 66.114 0 01-.392-.317zm2.316 1.796l-1.924 2.649.408.297 1.924-2.649a39.535 39.535 0 01-.408-.297zm2.407 1.674l-1.782 2.744.423.275 1.782-2.744a66.534 66.534 0 01-.423-.275zm2.482 1.539l-3 5.197.456.264 3-5.196a67.993 67.993 0 01-.456-.265zm2.579 1.419l-1.483 2.91.45.229 1.482-2.91c-.15-.075-.3-.152-.45-.229zm2.64 1.276l-1.328 2.982.46.205 1.328-2.981a68.493 68.493 0 01-.46-.206zm2.703 1.136l-1.17 3.046.471.181 1.17-3.047-.471-.18zm2.76.991l-1.009 3.103.48.156 1.008-3.103-.48-.156zm2.796.841l-1.552 5.791.51.137 1.552-5.792c-.17-.044-.34-.09-.51-.136zm2.86.698l-.68 3.195.494.105.68-3.195c-.166-.035-.33-.069-.494-.105zm2.88.544l-.51 3.23.497.079.512-3.23a80.785 80.785 0 01-.498-.079zm2.906.392l-.342 3.256.502.053.342-3.257a41.552 41.552 0 01-.502-.052zm2.922.24l-.172 3.273.504.026.171-3.273a42.021 42.021 0 01-.503-.026zm2.918.089V124h.528v-6.009h-.528zm2.943-.063l.17 3.273.505-.027-.172-3.272c-.168.01-.335.018-.504.026zm2.923-.214l.342 3.257.502-.053-.342-3.256c-.167.018-.334.036-.502.052zm2.909-.365l.512 3.23.498-.079-.512-3.23-.498.079zm2.886-.518l.679 3.195.493-.105-.679-3.195c-.164.036-.329.071-.493.105zm2.843-.667l1.552 5.792.51-.137-1.552-5.791c-.17.046-.34.092-.51.136zm2.827-.821l1.008 3.103.48-.156-1.008-3.103-.48.156zm2.768-.967l1.17 3.047.47-.181-1.169-3.047c-.156.061-.313.122-.47.181zm2.714-1.11l1.327 2.981.461-.205-1.328-2.982-.46.206zm2.65-1.253l1.484 2.911.45-.229-1.484-2.911c-.15.077-.299.154-.45.229zm2.573-1.383l3 5.196.456-.264-3-5.197c-.151.089-.304.177-.456.265zm2.515-1.529l1.781 2.743.424-.274-1.782-2.744-.423.275zm2.422-1.652l1.924 2.649.408-.297-1.924-2.649-.408.297zm2.332-1.776l2.062 2.546.392-.317-2.062-2.546a60.2 60.2 0 01-.392.317zm2.237-1.895l2.193 2.436.375-.337-2.193-2.436-.375.337zm2.127-2l4.249 4.249.373-.373-4.249-4.249-.373.373zm2.036-2.125l2.435 2.193.338-.375-2.436-2.193-.337.375zm1.914-2.22l2.547 2.062.317-.392-2.546-2.062a38.88 38.88 0 01-.318.392zm1.797-2.316l2.649 1.924.297-.407-2.649-1.925-.297.408zm1.674-2.407l2.744 1.782.274-.423-2.743-1.782-.275.423zm1.539-2.482l5.197 3 .263-.456-5.196-3c-.087.152-.175.305-.264.456zm1.419-2.579l2.91 1.483.229-.45-2.91-1.482c-.075.15-.152.3-.229.45zm1.276-2.64l2.982 1.328.205-.46-2.982-1.328c-.067.154-.136.307-.205.46zm1.135-2.703l3.047 1.17.181-.471-3.047-1.17c-.059.158-.12.315-.181.471zm.992-2.76l3.103 1.01.156-.48-3.104-1.009-.155.48zm.841-2.796l5.791 1.552.137-.51-5.792-1.552c-.044.17-.09.34-.136.51zm.698-2.86l3.195.68.105-.494-3.196-.68c-.034.165-.068.33-.104.494zm.544-2.88l3.23.51.078-.497-3.23-.512a40.99 40.99 0 01-.078.498zm.392-2.906l3.256.342.052-.501-3.256-.343a41.78 41.78 0 01-.052.502zm.24-2.921l3.272.171.027-.504-3.273-.171c-.008.168-.016.336-.026.504zm.089-2.92H124v-.527h-6.009v.528zm-.063-2.941l3.273-.172-.027-.504-3.272.172c.01.168.018.336.026.504zm-.214-2.924l3.256-.342-.052-.502-3.256.342c.018.167.036.334.052.502zm-.366-2.909l3.231-.511-.079-.498-3.23.511.078.498zm-.517-2.886l3.195-.679-.105-.493-3.195.679c.036.164.07.329.105.493zm-.667-2.843l5.792-1.552-.137-.51-5.791 1.552c.046.17.092.34.136.51zm-.822-2.827l3.104-1.008-.156-.48-3.103 1.008.155.48zm-.966-2.768l3.047-1.17-.181-.47-3.047 1.169c.061.157.122.314.181.47zm-1.111-2.714l2.982-1.327-.205-.461-2.982 1.328c.069.153.138.306.205.46zm-1.252-2.65l2.91-1.483-.229-.45-2.91 1.483c.077.15.154.3.229.45zm-1.384-2.573l5.197-3-.264-.456-5.197 3 .264.456zm-1.528-2.515l2.743-1.781-.274-.423-2.744 1.782c.092.14.184.28.275.422zm-1.652-2.422l2.649-1.924-.297-.408-2.649 1.924.297.408zm-1.776-2.332l2.546-2.062-.317-.392-2.546 2.062c.106.13.212.26.317.392zm-1.895-2.237l2.436-2.193-.338-.375-2.435 2.193.337.375zm-2-2.127l4.249-4.25-.373-.372-4.249 4.25c.125.123.249.247.373.372zm-2.125-2.036l2.193-2.435-.375-.338-2.193 2.436.375.337zm-2.22-1.914l2.062-2.547-.392-.317-2.062 2.546c.131.105.262.211.392.318zm-2.316-1.797l1.924-2.65-.408-.296-1.924 2.65c.136.098.272.196.408.296zm-2.407-1.673l1.782-2.744-.424-.275-1.781 2.743.423.276zm-2.482-1.54l3-5.197-.456-.263-3 5.196.456.264zm-2.579-1.419l1.483-2.91-.45-.23-1.482 2.91.45.23zm-2.64-1.276l1.328-2.982-.46-.205-1.328 2.982.46.205zm-2.703-1.135l1.17-3.047-.471-.18-1.17 3.046.471.18zm-2.76-.992l1.009-3.103-.48-.156-1.008 3.104c.16.05.32.103.48.155zm-2.796-.84l1.552-5.792-.51-.137-1.552 5.792c.17.044.34.09.51.136zm-2.86-.699l.68-3.195-.494-.105-.68 3.196c.165.034.33.068.494.104zm-2.88-.544l.51-3.23-.497-.078-.512 3.23.498.078zm-2.906-.392l.342-3.256-.501-.052-.343 3.256c.168.016.335.034.502.052zm-2.922-.24l.172-3.272-.504-.026-.171 3.272c.168.008.335.016.503.026z" fill="#758071"/>
</svg>
